<svg width="146" height="146" viewBox="0 0 146 146" fill="none" xmlns="http://www.w3.org/2000/svg">
  <path d="M146 73C146 113.317 113.317 146 73 146C32.6832 146 0 113.317 0 73C0 32.6832 32.6832 0 73 0C113.317 0 146 32.6832 146 73ZM20.44 73C20.44 102.028 43.9719 125.56 73 125.56C102.028 125.56 125.56 102.028 125.56 73C125.56 43.9719 102.028 20.44 73 20.44C43.9719 20.44 20.44 43.9719 20.44 73Z" fill="#A3A3A3" />
  <path d="M34.3988 11.0407C21.3143 19.1925 11.1464 31.2773 5.35226 45.5631C-0.441842 59.8489 -1.56463 75.6023 2.14482 90.5654C5.85428 105.529 14.2055 118.933 26.0017 128.858C37.7978 138.783 52.4332 144.719 67.8103 145.815L69.2634 125.427C58.1919 124.638 47.6544 120.364 39.1612 113.218C30.668 106.072 24.6551 96.4206 21.9843 85.6471C19.3135 74.8736 20.1219 63.5312 24.2936 53.2454C28.4654 42.9597 35.7863 34.2586 45.2072 28.3893L34.3988 11.0407Z" fill="#FF2727" />
  <path d="M124.619 21.3812C112.842 9.60411 97.3915 2.20836 80.8323 0.421387C64.2731 -1.36559 47.6008 2.56366 33.5822 11.557L44.6192 28.7611C54.7125 22.2858 66.7167 19.4568 78.6393 20.7434C90.5619 22.03 101.686 27.355 110.166 35.8345L124.619 21.3812Z" fill="#52C93F" />
  <path d="M42.4823 139.315C59.3388 147.072 78.5169 148.119 96.1177 142.243C113.718 136.367 128.421 124.008 137.236 107.68C146.052 91.3518 148.318 72.2795 143.575 54.3401C138.832 36.4007 127.435 20.9408 111.701 11.1033L100.865 28.4344C112.193 35.5174 120.399 46.6485 123.814 59.5649C127.229 72.4812 125.597 86.2133 119.25 97.9696C112.903 109.726 102.317 118.624 89.6447 122.855C76.9721 127.086 63.164 126.332 51.0272 120.747L42.4823 139.315Z" fill="#006AFF" />
</svg>